M48
; DRILL file {KiCad 6.0.0-d3dd2cf0fa~116~ubuntu20.04.1} date Thu Jan 13 14:34:30 2022
; FORMAT={-:-/ absolute / metric / decimal}
; #@! TF.CreationDate,2022-01-13T14:34:30+07:00
; #@! TF.GenerationSoftware,Kicad,Pcbnew,6.0.0-d3dd2cf0fa~116~ubuntu20.04.1
; #@! TF.FileFunction,MixedPlating,1,2
FMAT,2
METRIC
; #@! TA.AperFunction,Plated,PTH,ViaDrill
T1C0.381
; #@! TA.AperFunction,Plated,PTH,ComponentDrill
T2C0.889
; #@! TA.AperFunction,Plated,PTH,ComponentDrill
T3C1.000
; #@! TA.AperFunction,Plated,PTH,ComponentDrill
T4C1.575
; #@! TA.AperFunction,Plated,PTH,ComponentDrill
T5C3.200
; #@! TA.AperFunction,NonPlated,NPTH,ComponentDrill
T6C3.251
%
G90
G05
T1
X100.795Y-73.1
X100.795Y-83.26
X100.795Y-93.42
X100.795Y-103.58
X100.795Y-113.74
X100.795Y-123.9
X105.875Y-83.26
X105.875Y-88.34
X105.875Y-93.42
X105.875Y-98.5
X105.875Y-103.58
X105.875Y-108.66
X105.875Y-113.74
X105.875Y-118.82
X110.955Y-68.02
X110.955Y-78.18
X110.955Y-123.9
X110.955Y-134.06
X113.805Y-103.785
X114.428Y-90.418
X114.801Y-95.065
X115.837Y-84.849
X116.035Y-103.58
X116.035Y-113.74
X117.104Y-98.032
X117.108Y-111.118
X117.116Y-97.01
X117.241Y-105.901
X118.718Y-93.208
X118.724Y-92.181
X119.168Y-105.006
X120.398Y-88.408
X120.398Y-91.368
X120.398Y-94.458
X120.398Y-97.518
X120.398Y-100.548
X120.398Y-103.598
X120.398Y-106.808
X120.408Y-109.798
X121.115Y-68.02
X121.115Y-78.18
X121.115Y-83.26
X121.115Y-113.74
X121.115Y-123.9
X121.115Y-134.06
X126.195Y-83.26
X126.195Y-113.74
X131.275Y-68.02
X131.275Y-78.18
X131.275Y-83.26
X131.275Y-88.34
X131.275Y-93.42
X131.275Y-98.5
X131.275Y-103.58
X131.275Y-108.66
X131.275Y-113.74
X131.275Y-123.9
X131.275Y-134.06
X136.355Y-83.26
X136.355Y-88.34
X136.355Y-93.42
X136.355Y-98.5
X136.355Y-103.58
X136.355Y-108.66
X136.355Y-113.74
X141.435Y-68.02
X141.435Y-78.18
X141.435Y-83.26
X141.435Y-88.34
X141.435Y-93.42
X141.435Y-98.5
X141.435Y-103.58
X141.435Y-108.66
X141.435Y-113.74
X141.435Y-123.9
X141.435Y-134.06
X151.268Y-88.378
X151.268Y-91.448
X151.268Y-94.518
X151.268Y-97.578
X151.278Y-100.638
X151.278Y-103.688
X151.278Y-106.768
X151.278Y-109.828
X151.595Y-68.02
X151.595Y-78.18
X151.595Y-83.26
X151.595Y-113.74
X151.595Y-123.9
X151.595Y-134.06
X156.675Y-83.26
X156.675Y-98.5
X156.675Y-113.74
X156.675Y-118.82
X161.551Y-112.011
X161.678Y-87.078
X161.755Y-68.02
X161.755Y-78.18
X161.755Y-93.42
X161.755Y-103.58
X161.755Y-118.82
X161.755Y-123.9
X161.755Y-134.06
X166.835Y-83.26
X166.835Y-88.34
X166.835Y-113.74
X171.915Y-83.26
X171.915Y-93.42
X171.915Y-103.58
X171.915Y-113.74
X171.915Y-123.9
T2
X163.33Y-84.654
X163.33Y-86.686
X163.33Y-88.718
X163.33Y-90.75
X163.33Y-110.714
X163.33Y-112.746
X163.33Y-114.778
X163.33Y-116.81
X165.108Y-83.638
X165.108Y-85.67
X165.108Y-87.702
X165.108Y-89.734
X165.108Y-109.698
X165.108Y-111.73
X165.108Y-113.762
X165.108Y-115.794
T3
X108.848Y-82.308
X108.848Y-84.848
X108.848Y-87.388
X108.848Y-89.928
X108.848Y-92.468
X108.848Y-95.008
X108.848Y-97.548
X108.848Y-100.088
X108.848Y-102.628
X108.848Y-105.168
X108.848Y-107.708
X108.848Y-110.248
X108.848Y-112.788
X108.848Y-115.328
X108.848Y-117.868
X111.388Y-82.308
X111.388Y-84.848
X111.388Y-87.388
X111.388Y-89.928
X111.388Y-92.468
X111.388Y-95.008
X111.388Y-97.548
X111.388Y-100.088
X111.388Y-102.628
X111.388Y-105.168
X111.388Y-107.708
X111.388Y-110.248
X111.388Y-112.788
X111.388Y-115.328
X111.388Y-117.868
T4
X164.219Y-79.066
X164.219Y-95.322
X164.219Y-105.126
X164.219Y-121.382
T5
X102.6Y-66.84
X102.61Y-133.41
X169.11Y-133.39
X169.14Y-66.85
T6
X167.648Y-80.844
X167.648Y-93.544
X167.648Y-106.904
X167.648Y-119.604
T0
M30
