%TF.GenerationSoftware,KiCad,Pcbnew,6.0.0-d3dd2cf0fa~116~ubuntu20.04.1*%
%TF.CreationDate,2022-01-13T14:32:50+07:00*%
%TF.ProjectId,i5ether_mod,69356574-6865-4725-9f6d-6f642e6b6963,v1.0*%
%TF.SameCoordinates,Original*%
%TF.FileFunction,Soldermask,Top*%
%TF.FilePolarity,Negative*%
%FSLAX46Y46*%
G04 Gerber Fmt 4.6, Leading zero omitted, Abs format (unit mm)*
G04 Created by KiCad (PCBNEW 6.0.0-d3dd2cf0fa~116~ubuntu20.04.1) date 2022-01-13 14:32:50*
%MOMM*%
%LPD*%
G01*
G04 APERTURE LIST*
G04 Aperture macros list*
%AMRoundRect*
0 Rectangle with rounded corners*
0 $1 Rounding radius*
0 $2 $3 $4 $5 $6 $7 $8 $9 X,Y pos of 4 corners*
0 Add a 4 corners polygon primitive as box body*
4,1,4,$2,$3,$4,$5,$6,$7,$8,$9,$2,$3,0*
0 Add four circle primitives for the rounded corners*
1,1,$1+$1,$2,$3*
1,1,$1+$1,$4,$5*
1,1,$1+$1,$6,$7*
1,1,$1+$1,$8,$9*
0 Add four rect primitives between the rounded corners*
20,1,$1+$1,$2,$3,$4,$5,0*
20,1,$1+$1,$4,$5,$6,$7,0*
20,1,$1+$1,$6,$7,$8,$9,0*
20,1,$1+$1,$8,$9,$2,$3,0*%
G04 Aperture macros list end*
%ADD10RoundRect,0.300800X0.337500X0.475000X-0.337500X0.475000X-0.337500X-0.475000X0.337500X-0.475000X0*%
%ADD11RoundRect,0.300800X-0.350000X-0.450000X0.350000X-0.450000X0.350000X0.450000X-0.350000X0.450000X0*%
%ADD12C,6.501600*%
%ADD13RoundRect,0.050800X0.850000X0.850000X-0.850000X0.850000X-0.850000X-0.850000X0.850000X-0.850000X0*%
%ADD14O,1.801600X1.801600*%
%ADD15RoundRect,0.300800X0.537500X1.450000X-0.537500X1.450000X-0.537500X-1.450000X0.537500X-1.450000X0*%
%ADD16C,3.352800*%
%ADD17C,1.398600*%
%ADD18C,2.184400*%
%ADD19RoundRect,0.050800X-0.860000X0.320000X-0.860000X-0.320000X0.860000X-0.320000X0.860000X0.320000X0*%
G04 APERTURE END LIST*
D10*
%TO.C,C8*%
X124094900Y-109798000D03*
X122019900Y-109798000D03*
%TD*%
D11*
%TO.C,R7*%
X147488000Y-106758000D03*
X149488000Y-106758000D03*
%TD*%
%TO.C,R6*%
X147488000Y-103708000D03*
X149488000Y-103708000D03*
%TD*%
%TO.C,R1*%
X147608000Y-88388000D03*
X149608000Y-88388000D03*
%TD*%
%TO.C,R3*%
X147498000Y-94518000D03*
X149498000Y-94518000D03*
%TD*%
D12*
%TO.C,H1*%
X102599998Y-66839998D03*
%TD*%
D10*
%TO.C,C5*%
X124114900Y-100618000D03*
X122039900Y-100618000D03*
%TD*%
%TO.C,C4*%
X124104900Y-97558000D03*
X122029900Y-97558000D03*
%TD*%
D13*
%TO.C,J1*%
X111388000Y-117868000D03*
D14*
X108848000Y-117868000D03*
X111388000Y-115328000D03*
X108848000Y-115328000D03*
X111388000Y-112788000D03*
X108848000Y-112788000D03*
X111388000Y-110248000D03*
X108848000Y-110248000D03*
X111388000Y-107708000D03*
X108848000Y-107708000D03*
X111388000Y-105168000D03*
X108848000Y-105168000D03*
X111388000Y-102628000D03*
X108848000Y-102628000D03*
X111388000Y-100088000D03*
X108848000Y-100088000D03*
X111388000Y-97548000D03*
X108848000Y-97548000D03*
X111388000Y-95008000D03*
X108848000Y-95008000D03*
X111388000Y-92468000D03*
X108848000Y-92468000D03*
X111388000Y-89928000D03*
X108848000Y-89928000D03*
X111388000Y-87388000D03*
X108848000Y-87388000D03*
X111388000Y-84848000D03*
X108848000Y-84848000D03*
X111388000Y-82308000D03*
X108848000Y-82308000D03*
%TD*%
D10*
%TO.C,C7*%
X124044900Y-106738000D03*
X121969900Y-106738000D03*
%TD*%
D12*
%TO.C,H2*%
X102610006Y-133409995D03*
%TD*%
D10*
%TO.C,C3*%
X124104900Y-94498000D03*
X122029900Y-94498000D03*
%TD*%
%TO.C,C6*%
X124104900Y-103678000D03*
X122029900Y-103678000D03*
%TD*%
D11*
%TO.C,R5*%
X147498000Y-100638000D03*
X149498000Y-100638000D03*
%TD*%
D10*
%TO.C,C9*%
X155015500Y-86608000D03*
X152940500Y-86608000D03*
%TD*%
D15*
%TO.C,C12*%
X149605500Y-121378000D03*
X145330500Y-121378000D03*
%TD*%
%TO.C,C11*%
X149605500Y-79028000D03*
X145330500Y-79028000D03*
%TD*%
D16*
%TO.C,J3*%
X167648000Y-106904000D03*
X167648000Y-119604000D03*
D17*
X165108000Y-109698000D03*
X163330000Y-110714000D03*
X165108000Y-111730000D03*
X163330000Y-112746000D03*
X165108000Y-113762000D03*
X163330000Y-114778000D03*
X165108000Y-115794000D03*
X163330000Y-116810000D03*
D18*
X164219000Y-105126000D03*
X164219000Y-121382000D03*
%TD*%
D19*
%TO.C,T1*%
X128778000Y-88388000D03*
X128778000Y-89408000D03*
X128778000Y-90428000D03*
X128778000Y-91448000D03*
X128778000Y-92468000D03*
X128778000Y-93488000D03*
X128778000Y-94508000D03*
X128778000Y-95528000D03*
X128778000Y-96548000D03*
X128778000Y-97568000D03*
X128778000Y-98588000D03*
X128778000Y-99608000D03*
X128778000Y-100628000D03*
X128778000Y-101648000D03*
X128778000Y-102668000D03*
X128778000Y-103688000D03*
X128778000Y-104708000D03*
X128778000Y-105728000D03*
X128778000Y-106748000D03*
X128778000Y-107768000D03*
X128778000Y-108788000D03*
X128778000Y-109808000D03*
X128778000Y-110828000D03*
X128778000Y-111848000D03*
X142938000Y-111848000D03*
X142938000Y-110828000D03*
X142938000Y-109808000D03*
X142938000Y-108788000D03*
X142938000Y-107768000D03*
X142938000Y-106748000D03*
X142938000Y-105728000D03*
X142938000Y-104708000D03*
X142938000Y-103688000D03*
X142938000Y-102668000D03*
X142938000Y-101648000D03*
X142938000Y-100628000D03*
X142938000Y-99608000D03*
X142938000Y-98588000D03*
X142938000Y-97568000D03*
X142938000Y-96548000D03*
X142938000Y-95528000D03*
X142938000Y-94508000D03*
X142938000Y-93488000D03*
X142938000Y-92468000D03*
X142938000Y-91448000D03*
X142938000Y-90428000D03*
X142938000Y-89408000D03*
X142938000Y-88388000D03*
%TD*%
D10*
%TO.C,C1*%
X124085500Y-88378000D03*
X122010500Y-88378000D03*
%TD*%
D12*
%TO.C,H4*%
X169139997Y-66850006D03*
%TD*%
D11*
%TO.C,R8*%
X147488000Y-109828000D03*
X149488000Y-109828000D03*
%TD*%
D10*
%TO.C,C10*%
X155015500Y-100648000D03*
X152940500Y-100648000D03*
%TD*%
%TO.C,C2*%
X124104900Y-91438000D03*
X122029900Y-91438000D03*
%TD*%
D11*
%TO.C,R4*%
X147498000Y-97578000D03*
X149498000Y-97578000D03*
%TD*%
D12*
%TO.C,H3*%
X169110000Y-133390005D03*
%TD*%
D11*
%TO.C,R2*%
X147498000Y-91458000D03*
X149498000Y-91458000D03*
%TD*%
D16*
%TO.C,J2*%
X167648000Y-93544000D03*
X167648000Y-80844000D03*
D17*
X165108000Y-83638000D03*
X163330000Y-84654000D03*
X165108000Y-85670000D03*
X163330000Y-86686000D03*
X165108000Y-87702000D03*
X163330000Y-88718000D03*
X165108000Y-89734000D03*
X163330000Y-90750000D03*
D18*
X164219000Y-79066000D03*
X164219000Y-95322000D03*
%TD*%
M02*
