%TF.GenerationSoftware,KiCad,Pcbnew,6.0.0-d3dd2cf0fa~116~ubuntu20.04.1*%
%TF.CreationDate,2022-01-13T14:32:50+07:00*%
%TF.ProjectId,i5ether_mod,69356574-6865-4725-9f6d-6f642e6b6963,v1.0*%
%TF.SameCoordinates,Original*%
%TF.FileFunction,Soldermask,Bot*%
%TF.FilePolarity,Negative*%
%FSLAX46Y46*%
G04 Gerber Fmt 4.6, Leading zero omitted, Abs format (unit mm)*
G04 Created by KiCad (PCBNEW 6.0.0-d3dd2cf0fa~116~ubuntu20.04.1) date 2022-01-13 14:32:50*
%MOMM*%
%LPD*%
G01*
G04 APERTURE LIST*
G04 Aperture macros list*
%AMRoundRect*
0 Rectangle with rounded corners*
0 $1 Rounding radius*
0 $2 $3 $4 $5 $6 $7 $8 $9 X,Y pos of 4 corners*
0 Add a 4 corners polygon primitive as box body*
4,1,4,$2,$3,$4,$5,$6,$7,$8,$9,$2,$3,0*
0 Add four circle primitives for the rounded corners*
1,1,$1+$1,$2,$3*
1,1,$1+$1,$4,$5*
1,1,$1+$1,$6,$7*
1,1,$1+$1,$8,$9*
0 Add four rect primitives between the rounded corners*
20,1,$1+$1,$2,$3,$4,$5,0*
20,1,$1+$1,$4,$5,$6,$7,0*
20,1,$1+$1,$6,$7,$8,$9,0*
20,1,$1+$1,$8,$9,$2,$3,0*%
G04 Aperture macros list end*
%ADD10C,6.501600*%
%ADD11RoundRect,0.050800X0.850000X0.850000X-0.850000X0.850000X-0.850000X-0.850000X0.850000X-0.850000X0*%
%ADD12O,1.801600X1.801600*%
%ADD13C,3.352800*%
%ADD14C,1.398600*%
%ADD15C,2.184400*%
G04 APERTURE END LIST*
D10*
%TO.C,H1*%
X102599998Y-66839998D03*
%TD*%
D11*
%TO.C,J1*%
X111388000Y-117868000D03*
D12*
X108848000Y-117868000D03*
X111388000Y-115328000D03*
X108848000Y-115328000D03*
X111388000Y-112788000D03*
X108848000Y-112788000D03*
X111388000Y-110248000D03*
X108848000Y-110248000D03*
X111388000Y-107708000D03*
X108848000Y-107708000D03*
X111388000Y-105168000D03*
X108848000Y-105168000D03*
X111388000Y-102628000D03*
X108848000Y-102628000D03*
X111388000Y-100088000D03*
X108848000Y-100088000D03*
X111388000Y-97548000D03*
X108848000Y-97548000D03*
X111388000Y-95008000D03*
X108848000Y-95008000D03*
X111388000Y-92468000D03*
X108848000Y-92468000D03*
X111388000Y-89928000D03*
X108848000Y-89928000D03*
X111388000Y-87388000D03*
X108848000Y-87388000D03*
X111388000Y-84848000D03*
X108848000Y-84848000D03*
X111388000Y-82308000D03*
X108848000Y-82308000D03*
%TD*%
D10*
%TO.C,H2*%
X102610006Y-133409995D03*
%TD*%
D13*
%TO.C,J3*%
X167648000Y-106904000D03*
X167648000Y-119604000D03*
D14*
X165108000Y-109698000D03*
X163330000Y-110714000D03*
X165108000Y-111730000D03*
X163330000Y-112746000D03*
X165108000Y-113762000D03*
X163330000Y-114778000D03*
X165108000Y-115794000D03*
X163330000Y-116810000D03*
D15*
X164219000Y-105126000D03*
X164219000Y-121382000D03*
%TD*%
D10*
%TO.C,H4*%
X169139997Y-66850006D03*
%TD*%
%TO.C,H3*%
X169110000Y-133390005D03*
%TD*%
D13*
%TO.C,J2*%
X167648000Y-93544000D03*
X167648000Y-80844000D03*
D14*
X165108000Y-83638000D03*
X163330000Y-84654000D03*
X165108000Y-85670000D03*
X163330000Y-86686000D03*
X165108000Y-87702000D03*
X163330000Y-88718000D03*
X165108000Y-89734000D03*
X163330000Y-90750000D03*
D15*
X164219000Y-79066000D03*
X164219000Y-95322000D03*
%TD*%
M02*
